<svg version="1.1" id="Layer_1" xmlns="http://www.w3.org/2000/svg" xmlns:xlink="http://www.w3.org/1999/xlink" x="0px" y="0px"
	 width="100%" viewBox="0 0 624 720" enable-background="new 0 0 624 720" xml:space="preserve">
<path fill="#000000" opacity="1.000000" stroke="none"
	d="
M459.371887,658.297241
	C508.540771,629.280273 545.385132,589.394165 570.346313,538.429138
	C583.771484,511.017975 592.974792,482.275787 597.367493,452.141113
	C600.971924,427.413757 601.506287,402.574707 598.924500,377.566650
	C593.862854,328.538269 577.620850,283.754364 550.080078,242.995636
	C546.541748,237.759064 542.548340,232.830826 538.804077,227.731567
	C538.310852,227.059860 538.046814,226.219772 537.070984,224.210678
	C527.220093,234.427902 518.490356,243.557098 509.666901,252.594757
	C506.411469,255.929199 503.048981,259.179871 499.523071,262.222809
	C496.771118,264.597748 496.316223,266.423737 498.722687,269.647308
	C518.711670,296.424011 532.399292,326.183563 539.906006,358.737183
	C545.861938,384.565674 546.567078,410.715393 544.429077,437.045197
	C541.498901,473.131439 530.694580,506.770203 512.701660,538.037048
	C484.197571,587.569275 442.640961,622.047974 389.682861,642.959595
	C365.454651,652.526611 340.181824,657.527893 314.157288,657.028137
	C287.957458,656.525146 262.721527,650.882751 239.016617,639.297485
	C235.352814,637.506836 235.375427,637.460571 233.831238,634.508118
	C235.676605,632.902588 237.534805,633.895874 239.385468,634.474426
	C266.148438,642.840393 293.790131,645.283020 321.326599,642.318420
	C399.901459,633.858948 459.755951,595.349426 499.916870,526.994385
	C515.559143,500.370758 524.322205,471.472504 527.856445,440.811615
	C529.887268,423.192841 530.467224,405.582153 528.483643,388.034729
	C524.058289,348.886841 510.521606,313.167603 486.660431,281.579895
	C484.050415,278.124756 481.331451,274.742859 478.888733,271.172546
	C475.281860,265.900787 475.603668,262.089691 480.192139,257.880249
	C497.513367,241.990036 514.204834,225.466873 530.492737,208.523239
	C535.827576,202.973602 540.449463,203.102997 544.842957,208.501465
	C576.902344,247.893860 599.237854,292.066315 609.887756,341.864380
	C613.921204,360.724487 615.838074,379.833130 616.497314,399.173828
	C618.100830,446.214478 609.270996,491.095367 590.384277,534.078186
	C561.237244,600.411499 514.090576,649.743591 449.580811,682.521729
	C420.254211,697.422913 389.180695,707.076172 356.573853,711.126038
	C327.074066,714.790039 297.521912,714.657349 268.083893,709.571472
	C214.256744,700.272034 165.973969,678.700867 124.108170,643.616516
	C75.519585,602.898193 41.993736,552.263245 26.204721,490.464966
	C19.989334,466.137909 17.414625,441.329834 18.815527,416.305664
	C21.958015,360.171600 40.541943,309.850861 76.399269,266.123291
	C92.316414,246.712540 111.219498,230.312180 128.859299,212.636536
	C191.834549,149.533310 255.788315,87.411339 318.248322,23.791220
	C319.413696,22.604214 320.603638,21.429375 321.879272,20.365374
	C323.965271,18.625456 326.312317,18.115807 328.853119,19.327360
	C331.396698,20.540247 332.486542,22.615089 332.342712,25.399315
	C332.299805,26.230133 332.347992,27.065464 332.348022,27.898726
	C332.349548,65.229836 332.284454,102.561218 332.435852,139.891724
	C332.454468,144.480652 330.833832,147.579117 327.634033,150.745148
	C306.315308,171.838669 285.239166,193.177048 263.989471,214.340759
	C255.962204,222.335556 247.726456,230.123474 239.481613,237.895233
	C237.920502,239.366745 235.868378,240.317337 234.042862,241.508331
	C234.468979,242.069214 234.895111,242.630096 235.321243,243.190979
	C243.495087,244.012955 251.723785,244.477097 259.833130,245.719986
	C291.866486,250.629578 321.259155,261.682068 345.801880,283.636688
	C347.288574,284.966614 348.699371,286.394440 350.040619,287.871887
	C358.368439,297.045380 358.630646,298.676208 352.936035,309.689240
	C347.508667,320.185394 343.939514,331.321686 343.574585,343.063202
	C343.249420,353.524506 346.071564,363.639221 352.174194,372.299866
	C362.883636,387.498413 376.852020,398.337097 395.441193,402.215759
	C399.487274,403.059998 403.684357,403.186768 407.814240,403.621735
	C413.230804,404.192230 415.636261,406.365967 416.249512,411.676056
	C418.071411,427.453186 417.978241,443.202271 415.167603,458.873688
	C408.411163,496.546082 391.657013,529.057007 364.324280,555.880310
	C339.054535,580.679138 308.852142,596.443115 274.125031,603.306763
	C193.668732,619.208374 102.398293,571.038696 75.176300,479.525909
	C68.544945,457.233124 66.089256,434.425903 67.866379,411.444122
	C73.647667,336.680176 121.269867,269.962769 200.231964,248.464111
	C206.354919,246.797058 210.800705,243.715820 215.137375,239.362564
	C247.475159,206.901154 279.959473,174.585236 312.512665,142.339600
	C315.474548,139.405701 316.763062,136.463440 316.735962,132.276443
	C316.571014,106.779045 316.671875,81.279999 316.631287,55.781578
	C316.628510,54.024712 317.155457,52.152596 316.061584,50.412556
	C313.821594,50.693653 312.651031,52.432739 311.297150,53.788982
	C275.863892,89.284203 240.538528,124.887527 205.021652,160.298782
	C173.870789,191.357040 142.944107,222.629578 110.912216,252.813660
	C72.177742,289.313660 47.471069,334.028656 38.637199,386.663757
	C28.382784,447.763000 39.484272,505.135284 71.811211,558.153015
	C111.514771,623.268799 168.512573,665.735535 241.472427,687.141602
	C273.652863,696.583252 306.675079,698.617920 339.839172,696.433411
	C382.555450,693.619751 422.189026,680.155273 459.371887,658.297241
M260.389984,263.352325
	C244.024277,261.151459 227.676056,259.840576 211.292557,263.359711
	C172.609940,271.668579 140.742477,290.993958 117.464279,323.100922
	C88.446060,363.124969 77.798759,407.863892 86.389320,456.716827
	C93.585579,497.640625 113.874382,531.053040 146.590744,556.544250
	C182.444778,584.480164 223.417694,593.412292 267.920380,586.691711
	C304.902252,581.106934 335.614868,563.573975 360.463745,535.783875
	C386.683777,506.460297 399.922913,471.910614 401.386688,432.700775
	C401.838348,420.602600 401.214691,419.653259 389.660645,417.465240
	C389.497345,417.434326 389.328918,417.429688 389.166168,417.396576
	C356.264618,410.705536 329.278412,382.778076 327.623932,344.639191
	C327.018372,330.680115 330.241730,317.580109 335.979523,305.023041
	C337.189941,302.374054 337.241211,300.535950 335.063751,298.410828
	C330.890228,294.337646 326.761047,290.238983 322.082886,286.728607
	C304.026276,273.179382 283.297302,266.603088 260.389984,263.352325
z"/>
<path fill="#000000" opacity="1.000000" stroke="none"
	d="
M495.097229,145.393738
	C498.195099,161.402847 496.296295,175.909180 485.786865,188.566238
	C473.718231,203.101181 452.597687,209.199356 434.123260,203.384811
	C415.928864,197.658417 403.537079,181.780273 401.530243,162.587112
	C398.667755,135.210876 418.076782,110.528893 448.143127,110.176819
	C468.596771,109.937302 487.599579,120.634415 495.097229,145.393738
M476.433990,172.843872
	C479.843170,166.503815 480.989502,159.968933 479.782013,152.681870
	C476.920227,135.411255 459.565521,123.365379 442.551453,127.327232
	C425.587494,131.277435 414.331024,147.431931 417.750854,162.919418
	C420.549225,175.592575 431.060760,186.644440 442.297760,188.570312
	C456.888672,191.071014 467.925385,185.510254 476.433990,172.843872
z"/>
<path fill="#000000" opacity="1.000000" stroke="none"
	d="
M163.640991,389.541687
	C152.263809,381.793762 147.747849,370.755676 148.309143,357.982422
	C149.002518,342.203339 156.425735,329.975067 170.981766,323.009857
	C185.843796,315.898163 203.053329,319.804382 213.001709,332.056244
	C222.675323,343.969727 222.458633,363.581726 212.727509,377.280334
	C201.524536,393.050842 180.357376,399.736816 163.640991,389.541687
M171.331009,342.839355
	C167.900864,346.430542 165.829468,350.757843 164.811050,355.547974
	C163.225937,363.003540 165.300690,369.463684 171.016617,374.453766
	C176.436737,379.185577 182.889587,378.925140 188.830673,376.083466
	C198.243561,371.581055 203.674652,363.949066 203.631058,353.162476
	C203.582108,341.051941 192.843994,333.307343 181.298843,336.930206
	C177.758530,338.041168 174.605194,339.858368 171.331009,342.839355
z"/>
<path fill="#000000" opacity="1.000000" stroke="none"
	d="
M276.771637,472.218445
	C266.649750,461.588593 262.109589,449.108551 263.831573,435.030396
	C265.761719,419.250702 279.545746,403.585052 303.818848,412.312714
	C324.469238,419.737732 336.545013,438.694641 334.306702,460.611786
	C332.790344,475.459503 316.283691,487.709717 301.434052,484.998657
	C292.037720,483.283203 283.692322,479.509705 276.771637,472.218445
M286.240479,427.463318
	C281.211487,430.363342 279.408936,435.164948 279.449219,440.494476
	C279.536469,452.049408 290.106903,465.310760 301.156036,468.283203
	C310.324158,470.749634 319.218536,464.142761 318.543091,454.654419
	C317.668243,442.364563 310.766357,433.802795 299.927826,428.346771
	C295.815430,426.276611 291.475433,425.393951 286.240479,427.463318
z"/>
<path fill="#000000" opacity="1.000000" stroke="none"
	d="
M166.691711,456.468384
	C187.824753,446.037140 208.996536,459.658905 212.193314,483.436340
	C214.787659,502.732758 202.001740,521.760864 183.431442,526.395264
	C160.837540,532.033752 141.450729,515.311523 143.941406,491.113800
	C145.484985,476.117493 152.454407,463.952728 166.691711,456.468384
M187.974228,505.479492
	C194.575653,498.213684 197.582703,489.954071 194.552765,480.237549
	C191.337006,469.925018 180.388351,466.168518 171.854294,472.708771
	C163.956451,478.761414 160.696213,487.332214 160.311081,497.118927
	C160.222107,499.379822 160.912170,501.340027 162.040497,503.255188
	C167.769028,512.978394 176.951431,513.971313 187.974228,505.479492
z"/>
</svg>
