<svg version="1.1" id="Layer_1" xmlns="http://www.w3.org/2000/svg" xmlns:xlink="http://www.w3.org/1999/xlink" x="0px" y="0px"
	 width="100%" viewBox="0 0 1024 1024" enable-background="new 0 0 1024 1024" xml:space="preserve">
<path fill="#000000" opacity="1.000000" stroke="none"
	d="
M287.717773,710.243652
	C260.275330,672.809509 242.098221,631.850586 235.561310,586.048218
	C226.772125,524.464783 238.252029,466.944183 270.606201,413.732300
	C284.651581,390.632324 302.723419,370.859955 322.306427,352.411804
	C346.813263,329.325195 370.237396,305.146210 394.155212,281.465332
	C423.047150,252.859604 452.010803,224.325928 480.824249,195.641388
	C498.066040,178.476700 515.071655,161.074890 532.210327,143.806366
	C533.726990,142.278259 535.271851,140.654953 537.101501,139.585938
	C541.138062,137.227585 545.800476,139.738022 546.287659,144.358765
	C546.426819,145.678467 546.342834,147.022842 546.342957,148.355896
	C546.347290,185.186676 546.273926,222.017792 546.439026,258.847839
	C546.461670,263.898773 544.971802,267.468445 541.308533,271.077240
	C519.948181,292.119904 498.934845,313.514282 477.677307,334.662201
	C468.245361,344.045502 458.515961,353.129791 448.059937,363.177765
	C454.466461,363.732605 459.804718,364.083527 465.116486,364.673004
	C500.821899,368.635406 533.527771,379.834961 560.635254,404.454987
	C561.251587,405.014801 561.840698,405.606354 562.420471,406.204498
	C572.488831,416.592499 572.775330,417.995758 566.395386,430.722931
	C561.331299,440.825104 558.024170,451.500458 557.556091,462.720734
	C557.178894,471.763611 559.266785,480.700256 563.967712,488.558289
	C574.343567,505.902252 589.144165,517.620544 609.099060,522.136536
	C613.284729,523.083801 617.665771,523.180847 621.961365,523.625488
	C627.244568,524.172363 629.645386,526.509094 630.289368,531.802673
	C633.268860,556.295288 631.099182,580.405579 622.922668,603.605530
	C599.095764,671.211365 551.742676,712.324951 481.064606,724.143188
	C429.836884,732.709106 384.091156,717.180298 344.563477,684.339844
	C309.818878,655.473267 289.783112,617.733887 283.664459,573.090637
	C274.973175,509.676086 293.238953,454.824249 339.037750,409.983856
	C360.730865,388.744690 387.302917,375.290527 416.732269,367.685059
	C419.995270,366.841797 422.895966,365.739532 425.409302,363.221191
	C458.834320,329.729614 492.300873,296.278931 525.913757,262.976227
	C529.411499,259.510712 530.788513,256.017578 530.748169,251.146637
	C530.539673,225.983429 530.662598,200.817566 530.620605,175.652710
	C530.617676,173.891678 531.138306,172.019043 530.050171,170.296631
	C528.078247,170.326553 527.191223,171.903885 526.081665,173.015366
	C487.587891,211.576080 449.193390,250.236221 410.621643,288.718689
	C382.317352,316.957397 354.137451,345.311554 325.003326,372.724854
	C287.818909,407.712952 263.995361,450.525604 253.616531,500.637024
	C249.132767,522.285645 248.058228,544.283081 249.548050,566.203247
	C253.121414,618.779114 272.884613,665.356812 305.211182,706.478455
	C348.393036,761.408936 404.543457,796.231689 472.762329,811.422974
	C499.619904,817.403748 527.000305,818.655457 554.201538,816.365479
	C626.654907,810.265869 687.762939,779.547424 737.478394,726.932007
	C774.603516,687.641357 797.426331,640.492065 808.583679,587.700989
	C813.379822,565.007996 815.502930,541.970703 814.555298,518.819946
	C811.986023,456.054688 792.706909,399.125854 753.986267,349.208099
	C753.176697,348.164368 752.250366,347.211121 751.171509,345.979279
	C747.355713,348.555603 744.474976,351.957672 741.320435,355.053833
	C731.928955,364.271484 722.579956,373.533997 713.074219,382.632599
	C710.684143,384.920258 710.437622,386.568268 712.496155,389.328674
	C736.121582,421.009613 751.033630,456.462463 757.101196,495.463806
	C760.254700,515.734192 760.143494,536.199646 758.451294,556.664062
	C754.739746,601.548706 739.495728,642.248474 713.407837,678.741211
	C687.940247,714.366150 654.632874,740.658569 614.661255,758.470764
	C587.102173,770.751709 558.218384,777.557190 528.014832,777.023743
	C502.150269,776.567078 477.228180,770.970764 453.789581,759.651062
	C451.501465,758.546021 448.691437,757.892395 447.624756,754.755920
	C449.779388,752.641846 451.976746,754.041260 454.024384,754.673340
	C480.654144,762.893127 508.053955,764.717651 535.508423,762.371460
	C580.773804,758.503296 621.431396,742.052612 656.949707,713.610657
	C701.765198,677.723633 729.718445,631.572754 739.762329,574.904114
	C748.980835,522.891968 742.256409,473.233582 716.867432,426.538635
	C710.649353,415.102417 703.137451,404.497955 695.073120,394.280792
	C688.439087,385.875763 688.701843,382.915009 696.489685,375.710236
	C712.150574,361.221954 727.409851,346.327881 742.163696,330.911835
	C750.811646,321.875702 753.623718,322.133728 761.403564,331.842438
	C790.248474,367.838898 810.779053,407.997803 821.752136,452.871796
	C827.130432,474.866486 829.813354,497.188446 830.505432,519.892151
	C831.934021,566.758179 823.099548,611.455688 804.313049,654.289795
	C778.768616,712.532227 738.726257,758.096191 684.399414,791.104736
	C651.572693,811.049927 616.101318,824.013794 578.224243,830.061401
	C554.492493,833.850464 530.574585,834.197327 506.552979,832.547363
	C466.220734,829.777161 428.520477,817.942078 392.751312,799.827515
	C350.713287,778.538208 316.049133,748.299622 287.717773,710.243652
M433.283783,381.914124
	C391.323029,388.873352 356.694824,408.483429 331.561584,443.010040
	C301.199249,484.720123 291.012848,531.343933 301.425171,581.972778
	C309.416840,620.831543 329.635040,652.410156 360.899628,676.769348
	C384.178741,694.906799 410.535217,705.326172 440.078491,707.895325
	C457.453888,709.406372 474.695068,709.105774 491.591797,704.958923
	C544.763000,691.909424 581.736084,659.501770 603.463745,609.561768
	C611.304443,591.540222 614.801758,572.389954 615.449280,552.807251
	C615.884155,539.654724 615.490784,539.980103 602.796509,537.311279
	C570.226257,530.463684 543.677063,503.383942 541.651428,465.257050
	C540.901917,451.148895 543.992371,437.821808 549.995422,425.151672
	C551.356812,422.278198 551.095764,420.379486 548.836365,418.140228
	C543.263000,412.616394 537.564087,407.274353 530.905640,403.066376
	C501.226807,384.309937 468.305298,380.182037 433.283783,381.914124
z"/>
<path fill="#000000" opacity="1.000000" stroke="none"
	d="
M646.972412,232.658386
	C676.544556,223.876801 703.822510,239.205658 709.582214,268.868561
	C715.999512,301.917633 691.074768,324.350311 664.764099,325.488251
	C639.986511,326.559845 621.561279,309.819458 616.744141,289.847473
	C610.796692,265.189484 622.787231,240.890610 646.972412,232.658386
M631.790833,273.281494
	C628.258850,289.606323 643.273865,309.389160 662.493164,309.345886
	C681.381348,309.303375 697.380066,292.089050 693.835815,273.213928
	C691.033264,258.288971 678.412598,246.548828 663.513123,246.387543
	C648.350159,246.223419 634.341003,257.811493 631.790833,273.281494
z"/>
<path fill="#000000" opacity="1.000000" stroke="none"
	d="
M396.272827,439.652649
	C416.544312,438.067322 429.192719,450.951416 432.478149,462.454376
	C436.804413,477.601532 433.165314,490.889465 422.637268,502.056213
	C412.861206,512.425415 400.599487,516.934753 386.401337,513.258118
	C373.571960,509.935852 366.364899,500.917847 363.227417,488.313416
	C357.676422,466.012909 373.104950,442.946320 396.272827,439.652649
M406.331207,456.800262
	C395.182220,453.506531 381.001617,461.043457 378.522583,477.077332
	C377.379761,484.468842 379.822052,491.019135 386.246094,495.315979
	C392.241547,499.326233 398.653870,498.671173 404.635345,495.225861
	C410.736420,491.711700 415.013519,486.575897 416.876099,479.561493
	C419.454132,469.852997 415.939972,461.650635 406.331207,456.800262
z"/>
<path fill="#000000" opacity="1.000000" stroke="none"
	d="
M548.302917,580.767883
	C544.674194,600.793030 522.810730,613.537903 499.478333,599.107971
	C483.117279,588.989441 475.662201,573.439880 477.961792,554.489441
	C479.955505,538.059875 494.534851,523.887329 517.963928,532.360779
	C538.407837,539.754578 548.915466,556.198975 548.302917,580.767883
M494.568298,554.247620
	C494.025269,556.493713 493.031616,558.664795 493.389404,561.063354
	C495.247894,573.523132 501.696503,582.592407 513.370972,587.596680
	C518.498840,589.794800 523.486938,589.159363 527.858215,585.525269
	C532.268860,581.858398 533.657593,576.901733 532.376282,571.583923
	C529.547668,559.844421 522.710510,551.317383 511.043640,547.245056
	C503.444672,544.592651 498.837738,546.467346 494.568298,554.247620
z"/>
<path fill="#000000" opacity="1.000000" stroke="none"
	d="
M370.146912,584.156860
	C386.736694,568.736633 407.704559,569.357788 419.193054,585.346313
	C429.578918,599.800354 428.632080,621.136230 416.729492,634.410461
	C407.250793,644.981384 395.327118,650.016907 381.303375,646.547424
	C362.977173,642.013611 354.170776,624.582642 359.107758,604.367493
	C360.961426,596.777405 364.433868,590.051270 370.146912,584.156860
M377.718689,625.723816
	C381.684387,629.978455 386.187073,632.544556 392.309814,630.896057
	C405.579895,627.323242 413.410156,611.203979 407.917969,598.598083
	C405.054871,592.026550 397.990784,588.089233 391.809662,589.619751
	C378.849396,592.828735 370.267456,613.810364 377.718689,625.723816
z"/>
</svg>
